<svg width="61" height="60" viewBox="0 0 61 60" fill="none" xmlns="http://www.w3.org/2000/svg">
<g clip-path="url(#clip0_137_713)">
<path d="M30.5 5C16.7 5 5.5 16.2 5.5 30C5.5 43.8 16.7 55 30.5 55C44.3 55 55.5 43.8 55.5 30C55.5 16.2 44.3 5 30.5 5ZM30.5 50C19.475 50 10.5 41.025 10.5 30C10.5 18.975 19.475 10 30.5 10C41.525 10 50.5 18.975 50.5 30C50.5 41.025 41.525 50 30.5 50ZM41.975 18.95L25.5 35.425L19.025 28.975L15.5 32.5L25.5 42.5L45.5 22.5L41.975 18.95Z" fill="#339DFF"/>
</g>
<defs>
<clipPath id="clip0_137_713">
<rect width="60" height="60" fill="white" transform="translate(0.5)"/>
</clipPath>
</defs>
</svg>
