<svg width="24" height="24" viewBox="0 0 24 24" fill="none" xmlns="http://www.w3.org/2000/svg">
<path fill-rule="evenodd" clip-rule="evenodd" d="M0.5 30C0.5 13.44 13.94 0 30.5 0C47.06 0 60.5 13.44 60.5 30C60.5 46.56 47.06 60 30.5 60C13.94 60 0.5 46.56 0.5 30ZM6.5 30C6.5 43.23 17.27 54 30.5 54C43.73 54 54.5 43.23 54.5 30C54.5 16.77 43.73 6 30.5 6C17.27 6 6.5 16.77 6.5 30ZM38.5572 18L42.5 21.9427L34.4427 30L42.5 38.0572L38.5573 42L30.5 33.9427L22.4427 42L18.5 38.0572L26.5573 30L18.5 21.9427L22.4427 18L30.5 26.0572L38.5572 18Z" fill="#FFFFFF"/>
</svg>
